<svg width="304" height="120" viewBox="0 0 304 120" fill="none" xmlns="http://www.w3.org/2000/svg">
<path d="M56.8343 0L57.7711 9.3682H42.1573V15.6138H54.6484V24.9821H42.1573V31.2277H57.7711L56.8343 40.5959H32.7891V0H56.8343Z" fill="#062C43"/>
<path d="M81.1924 15.6138C81.1924 11.4503 79.4229 9.3684 75.8838 9.3682C72.1364 9.3682 70.2628 11.45 70.2628 15.6138V29.9454H60.8945V15.6138C60.8945 5.20469 65.891 0.000110078 75.8838 0C85.6683 0 90.5606 5.20458 90.5607 15.6138V40.5959H81.1924V15.6138Z" fill="#062C43"/>
<path d="M113.979 0V24.9821C113.979 35.3916 108.775 40.5961 98.3657 40.5959H94.6185L93.6816 31.2277H98.3657C102.529 31.2277 104.611 29.1458 104.611 24.9821V0H113.979Z" fill="#062C43"/>
<path d="M146.77 15.6138V40.5959H137.401V31.2276H126.472V40.5958H117.104V15.6138C117.104 5.20469 122.1 0.000110078 132.093 0C141.877 0 146.77 5.20458 146.77 15.6138ZM132.093 9.3682C128.345 9.3682 126.472 11.45 126.472 15.6138V21.8591H137.401V15.6138C137.401 11.4503 135.632 9.3684 132.093 9.3682Z" fill="#062C43"/>
<path d="M212.348 15.6138V40.5959H202.979V31.2276H192.05V40.5958H182.682V15.6138C182.682 5.20469 187.678 0.000110078 197.671 0C207.455 0 212.348 5.20458 212.348 15.6138ZM197.671 9.3682C193.924 9.3682 192.05 11.45 192.05 15.6138V21.8591H202.98V15.6138C202.979 11.4503 201.21 9.3684 197.671 9.3682Z" fill="#062C43"/>
<path d="M113.418 62.478V87.4601H104.05V78.0918H93.1204V87.4601H83.752V62.478C83.752 52.0689 88.7484 46.8644 98.7412 46.8643C108.526 46.8642 113.418 52.0688 113.418 62.478ZM98.7412 56.2325C94.9941 56.2325 93.1205 58.3143 93.1204 62.478V68.7234H104.05V62.478C104.05 58.3145 102.28 56.2327 98.7412 56.2325Z" fill="#062C43"/>
<path d="M132.155 46.8643C141.523 46.8643 146.207 51.5484 146.207 60.9167C146.207 67.1621 144.438 71.1176 140.899 72.7832L146.207 87.4602H135.902L132.155 74.9691H125.909V87.4602H116.541V46.8643H132.155ZM125.909 65.6008H132.155C135.278 65.6008 136.839 64.0394 136.839 60.9167C136.839 57.7939 135.278 56.2325 132.155 56.2325H125.909V65.6008Z" fill="#062C43"/>
<path d="M242.198 46.7852V56.3383L200.854 56.2322V87.4599H191.486V56.2322H182.117V46.864L242.198 46.7852Z" fill="#062C43"/>
<path d="M246.135 90.2923L246.137 46.7505H255.488L255.503 80.9241L291.557 80.9282V90.3297L246.135 90.2923Z" fill="#062C43"/>
<path d="M303.907 62.478V87.4601H294.538V78.0918H283.609L274.24 78.0986V62.478C274.24 52.0689 279.237 46.8644 289.229 46.8643C299.014 46.8642 303.906 52.0688 303.907 62.478ZM289.229 56.2325C285.482 56.2325 283.609 58.3143 283.609 62.478V68.7234H294.538V62.478C294.538 58.3145 292.769 56.2327 289.229 56.2325Z" fill="#062C43"/>
<path d="M60.8938 33.2056V38.1339C60.81 38.8153 60.6412 39.4835 60.3911 40.1229C60.0721 40.9534 59.6166 41.7248 59.0433 42.4052C58.3302 43.2514 57.5419 44.0313 56.688 44.7353C55.5301 45.5673 54.2938 46.2846 52.9967 46.8769C51.3222 47.529 49.5832 48.0012 47.8089 48.2857C45.8511 48.4978 43.8761 48.4978 41.9183 48.2857C40.144 48.0012 38.4049 47.529 36.7304 46.8769C35.4334 46.2846 34.1971 45.5673 33.0392 44.7353C32.1324 44.0921 31.3368 43.305 30.6839 42.4052C30.2603 41.8365 29.8884 41.2309 29.5729 40.5958C28.2132 37.9233 27.2054 34.1032 26.9329 33.0392L24.3575 25.9189C27.8965 24.2535 29.6661 20.298 29.6662 14.0524C29.6662 4.68414 24.982 0 15.6138 0H0V40.5958H9.3682V28.1047H15.6138C16.9871 31.7285 18.1021 35.445 18.9503 39.2263C19.2776 40.7085 19.9618 44.0301 21.7135 46.7978C22.4224 47.8894 23.2173 48.9227 24.0907 49.8877C24.724 50.5881 25.4105 51.2385 26.1439 51.8333C27.1988 52.7142 28.3139 53.5204 29.4811 54.2461C30.3496 54.7693 31.2526 55.233 32.1838 55.6341C33.5064 56.2305 34.8657 56.7421 36.2534 57.1658C37.2996 57.4668 38.3639 57.7008 39.4399 57.8663C40.9599 58.1194 42.4941 58.2787 44.0336 58.3435C46.7016 58.4082 49.3674 58.1415 51.9697 57.5496C54.4096 56.9874 56.7672 56.1143 58.9847 54.9516C59.8572 54.5015 60.6977 53.992 61.5003 53.4266C62.6273 52.6477 63.6959 51.7875 64.6974 50.8527C65.629 49.9265 66.4859 48.9279 67.26 47.8665C67.8103 47.1502 68.298 46.3878 68.7175 45.5879C69.4945 44.0955 69.9955 43.2498 70.1988 42.0101C70.2546 41.6701 70.2578 40.5878 70.2621 38.4371C70.2633 37.7872 70.2628 37.2521 70.2621 36.8955V33.2056H60.8938ZM9.3682 18.7365V9.3682H15.6138C18.7365 9.3682 20.2979 10.9296 20.2979 14.0524C20.2978 17.1752 18.7365 18.7366 15.6138 18.7365H9.3682Z" fill="#062C43"/>
<path d="M273.557 98.9359C273.567 99.3081 273.551 99.6806 273.507 100.05C273.437 100.829 273.227 101.588 272.889 102.293C272.506 103.093 272.055 103.859 271.539 104.581C270.837 105.416 270.061 106.185 269.22 106.878C268.099 107.685 266.901 108.38 265.644 108.953C264.054 109.572 262.402 110.021 260.718 110.292C258.864 110.492 256.995 110.492 255.142 110.292C253.457 110.021 251.805 109.572 250.215 108.953C248.958 108.38 247.761 107.685 246.639 106.878C245.798 106.185 245.022 105.416 244.321 104.581C243.805 103.859 243.353 103.093 242.97 102.293C242.65 101.582 242.441 100.825 242.352 100.051C242.238 99.3682 242.187 98.677 242.198 97.9853V75.2231C242.198 64.8141 237.305 59.6095 227.521 59.6094C217.528 59.6094 212.531 64.814 212.531 75.2231V100.205H221.9V90.837H232.829V98.1015C232.724 99.6637 232.838 101.233 233.17 102.763C233.351 103.615 233.603 104.451 233.922 105.261C234.372 106.445 234.926 107.586 235.577 108.672C236.266 109.75 237.041 110.77 237.895 111.722C238.499 112.401 239.155 113.032 239.855 113.611C240.873 114.473 241.951 115.261 243.079 115.971C243.918 116.486 244.792 116.943 245.694 117.339C246.959 117.916 248.258 118.412 249.586 118.824C250.611 119.125 251.655 119.36 252.711 119.524C254.165 119.769 255.632 119.923 257.105 119.987C258.212 120.022 259.321 119.986 260.424 119.879C261.888 119.748 263.342 119.526 264.779 119.213C265.775 118.988 266.756 118.698 267.716 118.347C269.033 117.872 270.318 117.31 271.561 116.666C272.406 116.222 273.219 115.72 273.994 115.164C275.073 114.408 276.096 113.574 277.055 112.67C277.964 111.755 278.8 110.77 279.555 109.724C280.081 109.028 280.547 108.287 280.946 107.511C281.534 106.38 282.017 105.198 282.389 103.979C282.743 102.763 282.963 101.511 283.045 100.247C283.088 99.7152 283.104 99.2658 283.11 98.9359C283.118 96.8279 283.127 94.7199 283.135 92.6119H273.582C273.574 94.72 273.565 96.828 273.557 98.9359ZM221.9 81.4686V75.2231C221.9 71.0596 223.773 68.9778 227.521 68.9776C231.06 68.9776 232.829 71.0594 232.829 75.2231V81.4686H221.9Z" fill="#062C43"/>
<path d="M169.854 46.8737H179.223V71.8558C179.223 82.2652 174.331 87.4698 164.546 87.4695C154.553 87.4695 149.557 82.265 149.557 71.8558V46.8737H158.925V71.8558C158.925 76.0196 160.799 78.1015 164.546 78.1013C168.085 78.1013 169.855 76.0195 169.855 71.8558L169.854 46.8737Z" fill="#99102F"/>
<path d="M169.854 15.6238C169.854 11.4603 168.085 9.37841 164.546 9.37821C160.799 9.37821 158.925 11.4601 158.925 15.6238V40.6059H149.557V15.6238C149.557 5.2147 154.553 0.0101198 164.546 0.0100098C174.33 0.0100098 179.223 5.21459 179.223 15.6238V40.6059H169.854V15.6238Z" fill="#99102F"/>
</svg>
